<svg version="1.1" id="Layer_1" xmlns="http://www.w3.org/2000/svg" xmlns:xlink="http://www.w3.org/1999/xlink" x="0px" y="0px"
	 width="100%" viewBox="0 0 1024 928" enable-background="new 0 0 1024 928" xml:space="preserve">
<path fill="#000000" opacity="1.000000" stroke="none" 
	d="
M783.263184,201.328918 
	C791.661438,202.605682 799.766235,200.706177 807.646423,202.029892 
	C815.534729,203.354996 823.462036,202.882263 831.353394,203.548523 
	C839.497253,204.236115 847.786560,203.664032 855.978333,203.125839 
	C860.131226,202.852982 863.991211,203.960464 867.740784,204.925827 
	C872.374573,206.118820 876.941528,206.219330 881.512207,205.984299 
	C893.523682,205.366699 902.477600,210.451630 908.903076,220.205780 
	C914.583313,228.828568 922.391846,235.795578 927.581848,244.809082 
	C928.927551,247.146072 929.647705,249.008682 928.958801,251.729904 
	C927.922485,255.822662 928.152649,259.991272 930.464661,263.745728 
	C937.497742,275.166443 938.054016,287.589539 934.489197,299.895233 
	C932.501099,306.758148 927.510437,312.694397 924.809814,319.424225 
	C922.259277,325.779877 918.001465,331.059174 913.582458,335.572784 
	C908.545166,340.717987 903.737732,346.233063 898.000549,350.933777 
	C890.832520,356.806915 883.456543,362.023193 875.609802,366.848267 
	C870.538452,369.966705 867.052124,375.120758 862.598083,379.132477 
	C853.429321,387.390686 843.593445,394.662170 833.706177,402.002106 
	C823.498901,409.579590 811.725952,415.107788 803.119812,424.870270 
	C801.641968,426.546753 799.347778,427.583008 797.297668,428.662323 
	C786.345581,434.428192 776.868530,442.413300 767.183289,449.867249 
	C753.518250,460.384033 738.654907,469.268158 725.681458,480.678711 
	C720.925598,484.861664 716.151611,489.071259 713.532104,495.058075 
	C712.014465,498.526428 708.727417,499.551971 705.662231,500.730469 
	C701.866333,502.189880 698.708191,504.288605 695.726135,507.142548 
	C691.164917,511.507843 684.607605,512.795837 679.570740,516.709412 
	C675.662109,519.746399 670.839905,521.605774 667.870483,525.867065 
	C667.147095,526.905090 666.094971,527.092834 664.920959,527.408142 
	C661.551880,528.313049 658.650330,530.863525 655.495972,531.651672 
	C647.925293,533.543274 643.455383,539.795105 637.088867,543.217346 
	C630.642151,546.682678 623.796814,549.488098 617.648193,553.402710 
	C611.777710,557.140259 604.537170,559.690491 600.215820,564.610107 
	C594.507996,571.108154 586.579590,573.616150 580.346985,579.009033 
	C573.755493,584.712402 567.693176,591.122803 560.578003,596.174194 
	C555.443115,599.819702 549.805420,602.797913 544.226990,605.763367 
	C540.505737,607.741638 537.120605,609.996826 534.181580,613.037781 
	C532.093445,615.198181 529.471313,616.723999 526.733337,618.010254 
	C525.227783,618.717529 523.435852,619.215149 522.352234,620.357056 
	C514.147461,629.002747 503.683105,634.872742 493.844635,640.910217 
	C483.249603,647.412109 475.210327,658.391846 461.877655,660.374451 
	C459.981323,660.656433 458.537506,662.102844 457.536926,663.579651 
	C453.702850,669.238647 448.677124,673.339294 442.505829,676.230103 
	C428.515625,682.783630 417.237061,693.203003 405.233032,702.589233 
	C394.074921,711.314148 383.423065,720.862244 371.494598,728.374817 
	C360.403534,735.359985 350.485382,744.041626 338.719635,750.070068 
	C333.505493,752.741577 328.930176,757.017151 324.739441,761.234863 
	C319.913757,766.091553 314.298706,770.487976 308.882690,773.846924 
	C296.637177,781.441345 285.609955,791.053650 272.292877,796.901428 
	C269.663849,798.055908 267.218597,799.327820 265.302521,801.553223 
	C264.229401,802.799622 262.781006,804.571960 261.203552,804.013367 
	C256.653290,802.402405 254.833176,805.425049 252.197388,808.060974 
	C247.341019,812.917480 241.219330,816.092163 235.150040,819.244568 
	C230.142914,821.845337 225.798233,825.269592 219.225449,824.529297 
	C215.150436,824.070435 210.677078,826.821472 206.430664,828.272583 
	C193.166504,832.805237 179.788208,834.124939 165.790222,831.783020 
	C157.423355,830.383057 149.939819,826.610596 141.737503,824.886169 
	C132.477310,822.939331 123.498726,819.651489 115.174568,815.133118 
	C110.465698,812.577148 105.425583,810.255249 101.581581,806.322083 
	C98.087532,802.746948 94.503593,799.321594 90.592758,796.177795 
	C80.335007,787.932312 74.139381,776.670837 69.026329,764.931091 
	C66.808914,759.839905 64.518700,754.655212 63.433563,748.981689 
	C61.820545,740.548035 61.889359,732.116150 62.480549,723.720764 
	C63.260281,712.647949 66.387466,701.882324 67.244377,690.744568 
	C67.673019,685.173218 70.731239,679.933533 74.734390,675.809570 
	C79.899742,670.488342 82.618149,663.528198 87.325874,657.934387 
	C87.734917,657.448364 88.202850,656.658081 88.085030,656.134888 
	C85.931358,646.572876 93.575653,642.574158 98.940796,637.564148 
	C102.957756,633.813110 106.896820,630.023560 110.721397,626.074280 
	C118.818947,617.712830 127.695068,610.179138 136.330780,602.383423 
	C144.715454,594.814270 152.341263,586.407837 160.363998,578.433105 
	C165.087769,573.737671 169.823227,569.041626 174.779663,564.598206 
	C176.933060,562.667664 179.557419,560.359802 182.233597,564.384277 
	C183.790268,566.725403 185.717636,565.348999 186.825684,564.031067 
	C192.047913,557.819702 199.112686,553.226746 202.902100,545.766602 
	C203.891907,543.817993 205.331223,542.345947 207.640930,543.078735 
	C210.851456,544.097534 213.546936,546.343994 213.485367,549.742859 
	C213.426880,552.972229 214.095505,555.470703 215.991623,558.005554 
	C217.760483,560.370239 216.450211,562.541260 214.435608,564.043640 
	C211.458389,566.263916 211.889633,568.498169 213.524399,571.373718 
	C217.781479,578.861877 221.791702,586.490601 225.876846,594.075989 
	C226.344818,594.944885 227.019577,595.902832 226.997314,596.804688 
	C226.733383,607.493347 229.517792,618.414246 224.570633,628.760986 
	C223.053680,631.933594 223.218155,635.862732 221.799179,638.747986 
	C217.799316,646.880859 215.448715,655.632446 211.538345,663.753601 
	C210.527954,665.851990 208.287018,666.492126 206.410156,667.538879 
	C201.834000,670.091003 197.038895,672.360168 192.913467,677.733154 
	C198.128677,676.870667 202.213745,676.123596 206.321487,675.534607 
	C211.063721,674.854675 215.742493,673.274292 220.652222,674.592712 
	C221.504761,674.821716 222.656860,674.452698 223.520248,674.043091 
	C231.409225,670.300476 239.877502,669.244934 248.373596,667.763184 
	C253.331955,666.898376 258.147675,663.710571 263.234589,665.704468 
	C268.952393,667.945740 274.942810,669.220459 280.642395,671.437988 
	C285.538971,673.343140 290.164398,674.666382 295.923828,674.104187 
	C314.185669,672.321716 329.750702,679.193237 342.710968,691.956604 
	C344.313843,693.535217 345.672913,694.395386 347.291260,692.842224 
	C349.954102,690.286621 353.299957,690.375122 356.210815,690.961304 
	C359.472443,691.618103 361.559052,690.464661 363.942780,688.794983 
	C372.355164,682.902344 380.983398,677.342834 389.714325,671.920959 
	C398.114594,666.704468 405.784424,660.217407 414.460754,655.568054 
	C422.151550,651.446716 428.749390,646.301331 435.251129,640.658875 
	C438.954742,637.444763 443.560211,635.018982 448.121643,633.097717 
	C456.914856,629.393982 463.437622,622.546204 470.705078,616.929199 
	C484.815460,606.023193 499.709991,596.441772 514.584961,586.697083 
	C522.897522,581.251465 531.272827,575.794800 539.414307,570.038025 
	C549.446411,562.944397 559.730896,556.203064 569.666870,548.980103 
	C575.571289,544.687866 580.393311,538.794250 586.974854,535.557251 
	C595.397461,531.414612 602.117249,524.894226 609.932983,519.913879 
	C614.103027,517.256714 618.239807,513.573853 622.332275,510.437073 
	C632.723755,502.472198 643.143921,494.310364 655.360657,489.130676 
	C660.999573,486.739838 664.152283,481.592896 668.584412,477.882141 
	C677.969910,470.024231 689.408325,465.344421 698.886902,457.777771 
	C709.709290,449.138336 721.958923,442.671997 733.089355,434.572632 
	C749.074219,422.940704 766.339844,413.091553 781.268738,400.003265 
	C783.594849,397.963867 786.549622,397.228210 789.154175,395.776733 
	C795.936035,391.997375 802.444275,387.847595 807.768921,382.102814 
	C810.211365,379.467621 813.474548,378.101807 816.458130,376.329163 
	C824.744873,371.405731 832.560547,365.748840 840.711853,360.612732 
	C847.360901,356.423248 852.829895,350.297882 859.811890,346.356415 
	C863.083496,344.509552 865.671997,341.983795 867.983582,339.121674 
	C869.006958,337.854523 870.203308,336.587280 869.941345,334.815765 
	C869.133301,333.627991 867.824524,332.900604 866.861633,333.352173 
	C861.387817,335.919556 855.165710,335.096802 849.655151,337.333466 
	C847.514221,338.202454 845.243530,338.325043 843.369141,337.214111 
	C836.063721,332.884338 828.797180,328.479248 824.211243,320.888123 
	C818.491089,311.419617 813.076721,301.556519 811.532654,290.667297 
	C809.647461,277.372650 809.905762,263.865601 821.232117,253.707047 
	C823.983398,251.239502 825.086121,247.692871 827.701050,244.974365 
	C833.277954,239.176514 840.310242,236.069504 848.249878,232.601440 
	C833.851074,225.966797 820.799072,219.181351 805.093872,223.172745 
	C799.016235,224.717361 792.636475,221.692627 786.269714,223.026672 
	C780.946106,224.142136 775.519836,224.779633 770.163940,225.781921 
	C764.835815,226.778992 759.156677,226.444199 753.604797,227.060440 
	C738.149231,228.775879 722.609619,229.719635 707.137634,231.304108 
	C695.548035,232.491013 683.910217,233.670029 672.487732,235.862457 
	C664.989441,237.301682 657.432007,238.108109 649.946960,239.455353 
	C646.530701,240.070251 643.899597,242.656128 640.819580,244.149506 
	C636.052307,246.460999 631.274292,246.876022 626.352783,247.024368 
	C623.134644,247.121368 620.054077,247.725143 617.019287,248.494415 
	C608.694946,250.604553 600.055176,250.723785 591.628845,252.099197 
	C584.170227,253.316650 576.048523,253.465225 568.157166,253.465637 
	C557.644775,253.466202 547.190369,255.728119 536.761047,257.975494 
	C525.249878,260.456024 513.627197,262.879181 501.788788,263.989746 
	C490.089050,265.087280 478.428253,266.852081 466.846680,268.875244 
	C457.997467,270.421112 449.008514,270.647186 440.198883,272.282227 
	C429.008545,274.359100 417.302612,273.559235 406.573669,278.159088 
	C398.539612,281.603607 389.737610,282.043976 381.395538,283.284485 
	C372.289185,284.638702 362.917786,286.159698 353.372437,285.358429 
	C346.879120,284.813385 340.200989,284.985840 333.604614,284.965576 
	C332.263000,284.961456 330.863617,285.034729 329.827057,285.994049 
	C327.120483,288.498871 324.282532,288.201080 321.021942,287.067444 
	C315.779846,285.244873 310.425110,287.395721 305.444336,288.264740 
	C299.969116,289.220032 294.379578,289.595337 288.899078,290.716492 
	C280.037781,292.529144 270.733063,292.334473 261.979858,294.476227 
	C250.225754,297.352325 237.911652,297.302185 226.506027,301.639954 
	C223.855118,302.648132 221.565262,302.699860 218.854385,301.590118 
	C216.456421,300.608521 213.536331,299.934998 211.044403,300.340363 
	C204.773056,301.360504 201.033401,297.965668 197.556000,293.749237 
	C195.544189,291.309845 193.472473,288.888214 191.754807,286.245941 
	C189.611160,282.948425 190.829193,279.064240 194.605194,278.320038 
	C205.302551,276.211792 214.453201,269.976471 225.007065,267.452148 
	C231.124802,265.988892 237.257401,264.776245 243.400864,263.514465 
	C254.058167,261.325684 264.994171,262.388611 275.395660,260.355927 
	C283.163055,258.837952 290.656982,260.105103 298.261444,259.133636 
	C317.908478,256.623779 337.652374,254.865692 357.363708,252.867874 
	C369.162354,251.672012 380.384277,247.491348 392.227081,246.348083 
	C396.063568,245.977722 399.934723,246.259003 403.534637,246.504562 
	C411.748016,247.064804 419.826355,244.486526 427.665771,245.403763 
	C434.661255,246.222244 440.645935,243.956161 447.084412,243.108643 
	C457.607635,241.723450 468.137817,240.391251 478.664581,239.032837 
	C484.101532,238.331238 489.531158,237.568344 494.975403,236.929123 
	C501.194183,236.198975 507.684723,236.453690 513.593201,234.709061 
	C523.552307,231.768417 533.794922,231.180542 543.901794,229.554703 
	C549.560974,228.644363 555.419006,228.954102 561.068970,228.007446 
	C567.422791,226.942871 573.584595,224.911652 579.957703,223.707382 
	C593.186523,221.207672 606.518127,218.856293 619.904419,219.472809 
	C627.752869,219.834290 634.510071,217.545822 641.648010,215.625443 
	C646.933472,214.203415 652.528992,213.997635 657.879944,213.535568 
	C666.271484,212.810959 674.453064,210.837891 682.937988,210.440292 
	C693.528870,209.944016 704.266907,209.609390 714.730347,207.844711 
	C723.200317,206.416275 731.988037,206.814423 740.146118,202.707733 
	C745.432861,200.046478 751.911682,200.955643 757.871887,200.867569 
	C766.189392,200.744659 774.514038,201.107971 783.263184,201.328918 
M560.874634,238.850555 
	C566.352417,239.019791 571.548279,237.334747 576.855225,236.382599 
	C571.056396,236.030701 565.041199,234.284470 559.177490,239.042633 
	C554.911560,239.750412 550.645630,240.458176 546.379700,241.165939 
	C546.502686,241.675110 546.625610,242.184265 546.748596,242.693436 
	C551.110229,241.225906 556.175659,242.738541 560.874634,238.850555 
M163.691376,660.875671 
	C169.680908,657.258423 176.626511,655.017944 180.789856,648.781189 
	C182.204987,646.661316 184.075470,645.110168 186.792862,644.717041 
	C188.792419,644.427917 190.492386,643.331238 192.078293,642.063416 
	C196.345947,638.651917 200.205231,634.735779 205.055542,632.039062 
	C207.166718,630.865234 208.249924,628.879883 206.936874,624.987122 
	C191.755783,637.104919 176.006424,647.305054 162.343567,661.170898 
	C159.347946,662.265198 156.936951,663.917969 155.919861,667.858826 
	C160.025269,666.696167 161.798447,664.137146 163.691376,660.875671 
M80.958542,702.463684 
	C80.415977,705.061646 80.161720,707.763489 79.270523,710.235779 
	C77.446190,715.296753 80.184357,718.281555 83.637672,721.603699 
	C88.683456,715.393677 95.894028,712.284912 100.881546,706.471619 
	C103.354118,703.589661 106.720757,701.729919 109.975914,699.668152 
	C117.956657,694.613342 125.649002,688.994141 129.541550,679.777100 
	C130.138458,678.363708 130.718246,677.110901 129.852646,675.546570 
	C127.579018,671.437744 129.786652,669.024292 133.194702,667.078979 
	C142.205795,661.935486 150.398453,655.188660 157.782532,648.402283 
	C167.008377,639.923218 176.893585,632.000183 185.469131,622.772705 
	C190.268799,617.608215 195.836243,613.452637 201.881622,609.917664 
	C205.683914,607.694153 207.024185,604.022400 205.381149,600.544800 
	C201.934509,593.249451 198.020081,586.203003 197.190353,577.930237 
	C193.494263,578.621338 191.811783,581.055420 189.807144,582.951721 
	C186.668182,585.921021 183.715042,589.038879 180.087296,591.503357 
	C164.719711,601.943298 149.828888,612.955505 136.002243,625.471130 
	C126.652008,633.934753 121.631432,646.174988 110.720505,653.148315 
	C107.955757,654.915344 105.254303,657.103821 103.235191,659.660461 
	C93.276176,672.270752 85.995567,686.345337 80.958542,702.463684 
M185.780380,747.215149 
	C192.471375,742.298157 199.178482,737.402893 205.846848,732.455383 
	C209.428482,729.798096 213.748322,728.141113 216.498566,724.347290 
	C219.601822,720.066589 223.764893,716.879822 228.540039,714.874878 
	C236.620041,711.482056 243.512527,705.978333 251.538025,702.510742 
	C254.974014,701.026245 257.376404,701.982971 257.934967,705.676392 
	C258.268585,707.882324 257.246674,709.518921 255.842789,711.043030 
	C254.158371,712.871765 254.098465,714.299133 256.462585,715.852539 
	C261.022858,718.848999 260.808960,720.494507 256.576996,723.878235 
	C249.051865,729.895020 239.924057,733.461426 232.815094,740.200439 
	C226.570633,746.119995 219.914612,751.629456 212.258347,755.884827 
	C209.041916,757.672485 206.760986,761.179932 209.058945,765.253357 
	C211.800919,770.113770 213.988831,770.446594 219.251190,768.003479 
	C222.095886,766.682739 224.878815,765.603821 227.202789,763.211792 
	C229.277328,761.076355 232.172195,760.310913 234.409515,765.058411 
	C236.299271,759.593567 238.241150,755.346436 243.238754,753.853088 
	C255.263336,750.259949 263.781952,740.739990 274.760345,735.183777 
	C283.634552,730.692505 292.237823,725.325500 300.372559,719.215637 
	C309.095642,712.663940 318.176483,706.508972 327.008881,700.050232 
	C330.528748,697.476257 330.687286,694.511353 327.446075,691.796448 
	C322.039642,687.267944 315.542755,684.703857 308.969025,682.384705 
	C308.720795,682.297119 308.249969,682.840576 307.926453,683.060303 
	C308.313354,684.794434 309.826874,684.977661 310.839874,685.755432 
	C314.031342,688.205872 318.320801,688.702148 321.235260,691.594116 
	C322.514282,692.863281 324.208527,694.331055 322.980316,696.285645 
	C321.694794,698.331543 319.500214,698.709473 317.222351,697.836731 
	C316.611389,697.602661 316.049438,697.201355 315.517639,696.805969 
	C308.010620,691.225647 299.438507,687.584045 291.174377,683.378113 
	C289.753784,682.655090 288.340881,682.689758 286.819855,682.743591 
	C280.500824,682.967651 274.174286,683.284790 267.857483,683.173340 
	C262.429413,683.077576 258.075378,684.850647 254.877274,689.203796 
	C252.541183,692.383667 249.393723,694.205078 245.963257,696.090820 
	C240.195358,699.261597 234.272766,702.165161 229.098450,706.540344 
	C222.529495,712.094727 215.159790,716.701538 208.139999,721.723450 
	C202.218201,725.960022 196.187180,730.054993 190.414536,734.486267 
	C183.293991,739.952209 177.595642,747.063171 170.218124,752.264832 
	C168.442017,753.517090 166.292389,754.778381 168.837906,757.292053 
	C170.964340,759.391907 173.236481,760.748413 175.484116,757.655334 
	C178.259308,753.836182 182.003494,751.018799 185.780380,747.215149 
M844.828674,256.391449 
	C839.624939,257.875153 838.346924,263.181732 834.533325,266.459656 
	C838.543274,269.301270 841.671875,270.405487 844.422180,265.294434 
	C846.199951,261.990692 849.672363,260.246338 852.778076,258.326416 
	C854.207581,257.442719 855.974243,257.129761 857.444824,258.434723 
	C858.614563,259.472595 859.523560,260.912018 858.843628,262.428314 
	C856.738708,267.122314 855.597717,272.905457 851.669678,275.918213 
	C848.174744,278.598877 848.424377,281.698303 847.880127,284.781891 
	C847.539673,286.710510 848.833252,288.880402 849.134338,290.979218 
	C849.773254,295.433746 856.133606,301.970917 860.536621,301.651794 
	C866.142029,301.245453 870.734680,304.172668 875.835449,305.345978 
	C878.511169,305.961456 880.072388,308.392670 879.625183,311.073303 
	C879.149597,313.924347 876.324768,313.420563 874.281067,313.409760 
	C870.538513,313.389984 866.751099,312.716309 863.055481,314.677917 
	C863.341797,315.878662 863.479004,316.858643 863.808167,317.769257 
	C866.159241,324.273621 868.419128,324.841827 873.589966,320.182373 
	C875.784851,318.204620 878.089478,317.486206 880.880676,318.869232 
	C882.166504,319.506287 883.267212,320.805481 884.894226,320.282318 
	C888.775940,315.620239 893.520447,311.111267 894.245300,305.159576 
	C894.932800,299.513916 896.538818,294.562805 899.203796,289.745392 
	C899.438538,289.321045 899.607483,288.799713 899.616394,288.319916 
	C899.849304,275.866241 900.493164,263.445404 892.262329,252.585678 
	C887.012329,245.658875 879.602722,243.268021 872.206360,244.621643 
	C862.707397,246.360046 853.319031,249.768402 844.828674,256.391449 
M780.428955,420.866486 
	C783.713196,418.618561 787.003845,416.379944 790.280579,414.121063 
	C802.330933,405.814087 814.475159,397.638489 826.388428,389.139221 
	C833.938965,383.752533 840.248108,376.622192 848.723572,372.545044 
	C853.704285,370.149048 856.528870,365.400543 860.925720,362.426758 
	C861.726807,361.884949 861.937927,360.701263 860.951538,359.760529 
	C859.150330,359.059570 858.173340,360.413025 857.235474,361.485199 
	C853.249451,366.041626 847.850464,369.458038 842.870117,371.749512 
	C832.240540,376.640198 823.857361,384.549469 814.704590,391.109192 
	C803.359985,399.239746 791.257263,406.246246 780.205139,414.807281 
	C771.155579,421.817169 760.774414,427.226837 752.284668,434.803772 
	C745.274414,441.060333 736.585632,444.271240 729.457825,450.335205 
	C722.256226,456.461914 712.932861,460.127991 705.735168,466.605499 
	C700.110596,471.667358 693.023682,474.428040 687.107971,479.058258 
	C679.547729,484.975708 672.447449,491.815338 664.265503,496.532135 
	C651.125305,504.107330 638.831482,512.845215 626.230591,521.163940 
	C621.959595,523.983521 618.227661,527.535889 614.546448,531.833801 
	C616.822205,532.247986 617.923340,531.590088 618.584717,530.704224 
	C622.955566,524.849670 629.625305,522.387817 635.548218,518.731506 
	C660.256348,503.478760 684.931519,488.185181 708.188232,470.695709 
	C717.962280,463.345490 729.159790,458.018738 738.612793,450.067932 
	C745.596558,444.193939 754.531982,441.103394 761.233521,434.700958 
	C766.799866,429.383026 773.541565,425.621307 780.428955,420.866486 
M432.424622,664.887268 
	C440.284698,660.890625 445.107361,654.678955 446.135803,645.311340 
	C439.554443,652.030884 431.074158,655.839722 424.115234,661.741577 
	C420.927490,664.445129 416.354156,665.024414 413.817963,668.556824 
	C410.743408,672.839050 406.518005,675.203247 401.563843,676.554321 
	C398.982758,677.258240 396.722473,678.512207 394.507233,680.105530 
	C384.428558,687.354797 374.800812,695.464905 363.422729,700.527100 
	C358.303925,702.804382 358.125946,705.433472 359.288879,709.679810 
	C360.116547,712.701660 361.786072,713.286560 363.832642,711.048645 
	C368.884552,705.524292 376.174774,703.780823 382.342834,700.287598 
	C393.229858,694.121765 403.006531,686.471313 413.157104,679.363281 
	C419.508118,674.916016 425.605560,669.986084 432.424622,664.887268 
M217.630402,741.105530 
	C227.424805,733.651917 237.829803,727.106201 248.218246,720.536011 
	C250.184937,719.292053 251.951569,717.441833 250.769974,715.264893 
	C249.597610,713.105042 247.159943,714.149109 245.427383,715.115112 
	C237.743164,719.399902 229.917877,723.335266 223.131607,729.210754 
	C215.485596,735.830505 208.482620,743.261963 199.671570,748.535583 
	C196.461472,750.456787 193.776520,753.255432 190.544891,755.905640 
	C193.754242,758.725159 196.709946,758.420837 199.189270,755.919067 
	C204.618820,750.440735 211.072845,746.290833 217.630402,741.105530 
M154.341858,731.895752 
	C153.122345,733.149048 151.285278,734.231506 153.544968,736.971680 
	C178.188599,719.486755 202.815872,702.013367 227.876297,684.232666 
	C218.950821,682.693909 217.950302,683.211121 214.763123,690.361816 
	C213.982574,692.113098 212.666763,693.420105 210.826202,693.964355 
	C201.127655,696.832153 193.173981,703.099609 184.864212,708.307068 
	C174.217621,714.978943 164.809555,723.627258 154.341858,731.895752 
M189.983627,697.580017 
	C191.866592,694.653870 196.124573,693.876282 197.283768,689.962708 
	C196.578888,689.903259 196.253540,689.816406 195.950897,689.866577 
	C195.632324,689.919434 195.302780,690.054932 195.034042,690.237000 
	C189.558167,693.947632 184.321854,698.381165 176.884720,695.382874 
	C176.182129,695.099670 174.917786,695.700500 174.128525,696.217773 
	C161.557800,704.457825 151.255646,714.890137 144.029434,728.468689 
	C158.905899,717.924561 172.697861,705.733765 189.983627,697.580017 
M273.695923,759.275146 
	C263.746399,765.952393 253.796860,772.629578 243.847321,779.306824 
	C247.970734,780.115417 250.927124,779.040833 253.473251,776.183960 
	C255.515823,773.892212 258.358856,772.476929 261.117126,770.909912 
	C273.627808,763.802856 286.728790,757.627014 297.984253,748.434021 
	C301.062561,745.919861 304.127777,743.055786 307.704315,741.562805 
	C313.197723,739.269531 315.175415,734.387878 318.189331,730.107971 
	C303.384033,739.531494 289.509674,750.214111 273.695923,759.275146 
M86.142174,731.567810 
	C93.120140,729.240967 97.150253,723.106506 102.373817,718.599670 
	C105.960526,715.505188 110.508896,714.092712 113.810326,710.721497 
	C118.529190,705.902893 123.360977,701.197449 128.965958,697.368652 
	C132.180893,695.172485 132.662140,693.935974 131.775726,690.824036 
	C130.629303,690.813843 130.096085,691.754700 129.353149,692.379639 
	C123.896843,696.969543 118.753403,702.015869 112.905830,706.038086 
	C101.677963,713.761169 90.857941,721.913269 81.316719,731.668396 
	C76.912750,736.171143 77.235237,740.614380 82.155464,745.137146 
	C84.696312,743.402710 86.466415,741.664124 84.041168,738.336853 
	C82.300720,735.949219 82.896454,733.602722 86.142174,731.567810 
M194.142303,774.656555 
	C197.520782,772.162720 201.748108,770.724548 204.276917,766.941345 
	C202.264587,765.369141 200.446747,764.860352 198.515686,766.204346 
	C196.882370,767.341064 195.386963,768.678589 193.737640,769.789246 
	C185.202606,775.536682 175.664932,779.703796 167.682922,786.327881 
	C164.197861,789.220032 160.685898,792.079651 156.130219,795.821411 
	C163.084946,795.774963 167.507919,793.108704 171.380981,789.909119 
	C178.288834,784.202271 185.757477,779.421692 194.142303,774.656555 
M190.528931,724.977112 
	C192.234711,721.592163 198.387161,722.233032 198.672379,716.672363 
	C191.645782,718.264038 154.575012,746.968140 152.915375,751.687500 
	C154.534286,752.973694 155.644852,751.571899 156.931091,750.958130 
	C169.780609,744.826477 178.750168,733.660217 190.528931,724.977112 
M197.594620,655.268372 
	C196.285522,652.479309 195.005035,654.827271 194.313400,655.548889 
	C184.271164,666.025391 172.002625,673.700439 160.628860,682.496338 
	C159.181244,683.615906 157.815460,684.734375 158.723190,687.240967 
	C170.886780,680.905334 182.171738,673.814270 191.914963,664.471863 
	C194.430130,662.060120 196.784363,659.458557 197.594620,655.268372 
M146.795837,770.289246 
	C136.961426,776.007751 133.540222,780.364990 136.051620,784.498901 
	C144.679916,778.263733 154.953125,774.647522 163.275482,767.560608 
	C157.317398,766.025146 152.070862,766.244629 146.795837,770.289246 
M834.781311,279.875610 
	C834.560486,279.503448 834.339661,279.131287 834.118835,278.759094 
	C833.913696,278.973389 833.556519,279.167755 833.525513,279.404816 
	C832.497986,287.259979 831.319153,295.124817 834.683960,302.904724 
	C837.872009,301.924286 839.621338,303.469299 840.598145,307.027466 
	C842.104065,312.512695 846.802979,314.540924 851.680786,316.862457 
	C852.191772,313.576782 850.507019,311.969177 849.193481,310.067780 
	C846.617676,306.339081 841.430725,304.957275 839.903503,300.654663 
	C837.595581,294.152435 834.276428,287.810974 834.781311,279.875610 
M160.005966,778.398438 
	C154.122070,783.066711 146.741165,785.937805 142.500153,792.758667 
	C147.022095,792.883240 150.808044,791.633179 154.198166,788.800537 
	C159.232529,784.594055 163.846909,779.978638 169.509705,776.372681 
	C173.506088,773.827942 178.554840,771.852478 181.760269,765.917969 
	C174.014404,770.488647 167.862320,775.233154 160.005966,778.398438 
M884.503296,334.003662 
	C879.099182,341.385864 872.832336,348.058838 866.736938,354.872711 
	C877.492615,350.436981 896.061768,328.327759 895.973999,320.201569 
	C893.430908,325.602844 888.219666,328.674042 884.503296,334.003662 
M110.455292,743.948853 
	C114.488113,741.292236 118.587555,738.730347 122.535484,735.953064 
	C126.706100,733.019104 129.655685,729.318909 128.730789,723.457520 
	C120.108292,733.622375 108.292221,740.341736 100.120689,750.920227 
	C103.639557,749.048157 106.219536,745.949219 110.455292,743.948853 
M133.168365,770.685913 
	C136.163818,768.600098 139.109482,766.437378 142.171738,764.454773 
	C144.316269,763.066223 147.171265,761.702637 145.244812,758.788696 
	C143.071121,755.500671 140.461212,757.911255 138.482391,759.544678 
	C133.382736,763.754456 128.440735,768.155151 123.444237,772.472229 
	C124.170822,774.754028 125.555069,775.017883 127.347778,774.042175 
	C129.102142,773.087219 130.817871,772.061340 133.168365,770.685913 
M122.993401,749.348450 
	C126.319748,746.876526 132.296951,746.701294 131.234177,739.991699 
	C130.453079,740.155396 129.970673,740.201599 129.526871,740.357605 
	C121.717865,743.103271 117.446106,750.575012 110.557968,754.600098 
	C108.727242,755.669861 108.742989,757.619690 111.039413,759.686157 
	C114.822258,756.431458 118.644615,753.142761 122.993401,749.348450 
M231.018097,695.444946 
	C232.987488,694.226501 235.767822,693.975342 236.094437,690.724915 
	C223.651428,696.840088 213.173508,705.747498 202.216660,714.004211 
	C206.918533,715.262329 209.772491,712.411438 212.469406,709.971680 
	C218.139465,704.842346 224.213272,700.270325 231.018097,695.444946 
M864.888794,223.151764 
	C862.376221,222.925751 859.879456,221.463928 857.077515,223.986847 
	C865.668762,226.401718 874.260071,228.816574 883.319519,231.363037 
	C881.535095,224.937943 878.019409,222.559479 872.286133,223.272903 
	C870.157532,223.537766 867.959961,223.249191 864.888794,223.151764 
M517.282043,601.636414 
	C525.986450,595.032715 536.428650,590.571106 542.638306,580.874207 
	C532.855591,588.962280 520.369080,593.441650 511.218445,604.049805 
	C512.804077,603.894958 513.336426,603.976379 513.728027,603.778809 
	C514.760681,603.257874 515.732239,602.615845 517.282043,601.636414 
M184.338425,634.332947 
	C193.401840,628.697021 201.553345,622.039978 207.800095,613.237305 
	C199.316406,619.521362 190.518616,625.431641 184.338425,634.332947 
M121.821579,762.827759 
	C128.145584,761.097412 130.689514,755.229004 134.849030,751.111694 
	C127.925514,754.023987 122.453117,758.632385 118.496414,765.080322 
	C119.411064,764.431213 120.325714,763.782104 121.821579,762.827759 
M210.189331,588.226501 
	C211.316940,590.520020 212.444534,592.813477 213.572144,595.106995 
	C213.977600,594.917297 214.383057,594.727600 214.788513,594.537903 
	C212.867096,589.788147 213.786652,583.972778 208.580612,579.759399 
	C208.196930,582.915955 209.404343,585.162964 210.189331,588.226501 
M323.019165,726.868469 
	C327.947266,726.487732 331.669373,724.236145 334.021240,719.839355 
	C329.276794,720.230042 326.291443,723.543274 323.019165,726.868469 
M100.937584,767.939087 
	C105.090134,764.031189 105.173660,763.794739 103.759995,759.949707 
	C98.689545,763.313965 98.308388,764.212463 100.937584,767.939087 
M128.124374,789.677795 
	C129.000900,787.930542 128.895111,786.410828 126.803291,785.786682 
	C125.199219,785.308167 123.947098,786.153748 123.090858,787.509155 
	C122.450035,788.523682 122.010147,789.767212 122.921234,790.695312 
	C124.583199,792.388123 126.190689,791.345886 128.124374,789.677795 
M457.682922,253.811981 
	C454.664612,254.351349 451.811340,255.517410 448.843170,256.350128 
	C453.676910,256.074554 458.510620,255.798981 463.344360,255.523407 
	C463.323822,255.124969 463.303314,254.726532 463.282776,254.328094 
	C461.664398,254.131943 460.046051,253.935791 457.682922,253.811981 
M91.547295,737.943909 
	C92.695969,736.420105 95.052505,735.366699 93.435936,732.059692 
	C90.605965,734.217163 88.779198,736.602051 87.277351,739.475586 
	C89.142731,740.262817 90.009644,739.048096 91.547295,737.943909 
M495.876160,611.412598 
	C494.414795,612.384705 492.805878,613.273193 493.343842,615.820496 
	C496.715759,614.854431 498.979156,613.148010 500.408447,610.119629 
	C498.571075,609.443909 497.608673,610.585693 495.876160,611.412598 
M245.172104,680.908691 
	C243.093063,678.853943 240.914108,680.055603 238.878967,680.889099 
	C238.119629,681.200073 238.034500,682.483948 238.860123,682.975342 
	C240.846695,684.158020 242.653091,682.827759 244.484619,682.234131 
	C244.751053,682.147766 244.920654,681.762756 245.172104,680.908691 
M226.612045,279.392517 
	C225.607895,280.375732 223.844040,281.139160 225.148102,282.948730 
	C225.788177,283.836914 226.973267,283.708374 227.918518,283.352936 
	C229.178680,282.879089 230.499298,282.210449 230.199966,280.556305 
	C229.893173,278.860931 228.678802,278.561920 226.612045,279.392517 
M334.516754,268.887604 
	C334.874542,268.591003 335.232330,268.294403 335.590118,267.997833 
	C331.746796,267.241730 327.844421,265.840179 324.340210,269.219482 
	C327.561493,268.573608 330.751831,269.899292 334.516754,268.887604 
M192.377518,783.362061 
	C189.779388,785.300720 186.730469,786.748901 184.684921,790.755493 
	C188.651260,787.901672 191.833923,785.611694 195.139359,783.233398 
	C193.996384,782.294006 193.449539,782.765137 192.377518,783.362061 
z"/>
<path fill="#000000" opacity="1.000000" stroke="none" 
	d="
M552.948547,187.953598 
	C552.886047,186.185211 553.230408,184.735092 554.940857,184.952896 
	C556.597900,185.163940 557.037598,186.863464 557.473328,188.249817 
	C557.802185,189.296158 557.424927,190.309464 556.302368,190.588684 
	C554.445190,191.050644 553.730042,189.628464 552.948547,187.953598 
z"/>
</svg>